<svg width="192" height="192" viewBox="0 0 192 192" fill="none" xmlns="http://www.w3.org/2000/svg">
<rect width="192" height="192" rx="25.6" fill="black"/>
<path d="M96.5015 141L63.9895 101.192V141H46.0695V51.656H63.9895V91.72L96.5015 51.656H118.133L81.2695 95.944L119.157 141H96.5015ZM138.88 141.896C135.638 141.896 132.95 140.915 130.816 138.952C128.768 136.904 127.744 134.387 127.744 131.4C127.744 128.413 128.768 125.939 130.816 123.976C132.95 121.928 135.638 120.904 138.88 120.904C142.038 120.904 144.64 121.928 146.688 123.976C148.736 125.939 149.76 128.413 149.76 131.4C149.76 134.387 148.736 136.904 146.688 138.952C144.64 140.915 142.038 141.896 138.88 141.896Z" fill="white"/>
</svg>
