<svg width="209" height="246" viewBox="0 0 209 246" fill="none" xmlns="http://www.w3.org/2000/svg">
<path d="M45.73 103.02H56.44C60.7467 103.02 64.3167 102.453 67.15 101.32C69.9833 100.073 72.42 98.1467 74.46 95.54L142.29 9.69001C145.123 6.06333 148.07 3.57 151.13 2.21C154.303 0.736667 158.27 0 163.03 0H202.47L119.68 102.17C114.807 108.403 109.763 112.823 104.55 115.43C108.29 116.79 111.633 118.717 114.58 121.21C117.64 123.59 120.53 126.763 123.25 130.73L208.59 245.82H168.3C162.86 245.82 158.78 245.083 156.06 243.61C153.453 242.023 151.243 239.757 149.43 236.81L79.9 146.03C77.7467 142.97 75.2533 140.817 72.42 139.57C69.5867 138.323 65.5067 137.7 60.18 137.7H45.73V245.82H0V0H45.73V103.02Z" fill="#F5B827"/>
</svg>
